<?xml version="1.0" encoding="utf-8"?>
<svg xmlns="http://www.w3.org/2000/svg" viewBox="0 0 16 16" fill="#000000"><path style="line-height:normal;text-indent:0;text-align:start;text-decoration-line:none;text-decoration-style:solid;text-decoration-color:#000;text-transform:none;block-progression:tb;isolation:auto;mix-blend-mode:normal" d="M 8.5 1 C 7.1250151 1 6 2.1250151 6 3.5 A 0.50005 0.50005 0 1 0 7 3.5 C 7 2.6649849 7.6649849 2 8.5 2 C 9.3350151 2 10 2.6649849 10 3.5 C 10 4.3350151 9.3350151 5 8.5 5 L 1.5 5 A 0.50005 0.50005 0 1 0 1.5 6 L 8.5 6 C 9.8749849 6 11 4.8749849 11 3.5 C 11 2.1250151 9.8749849 1 8.5 1 z M 1.5 7 A 0.50005 0.50005 0 1 0 1.5 8 L 11.939453 8 L 12 8 C 13.110906 8 14 8.8890941 14 10 C 14 11.110906 13.110906 12 12 12 C 11.026639 12 10.22448 11.312291 10.039062 10.400391 A 0.50005 0.50005 0 1 0 9.0605469 10.599609 C 9.3391298 11.969709 10.553361 13 12 13 C 13.651094 13 15 11.651094 15 10 C 15 8.3489059 13.651094 7 12 7 L 11.939453 7 L 1.5 7 z M 1.5 9 A 0.50005 0.50005 0 1 0 1.5 10 L 5.5 10 C 6.3350151 10 7 10.664985 7 11.5 C 7 12.335015 6.3350151 13 5.5 13 C 4.6649849 13 4 12.335015 4 11.5 A 0.50005 0.50005 0 1 0 3 11.5 C 3 12.874985 4.1250151 14 5.5 14 C 6.8749849 14 8 12.874985 8 11.5 C 8 10.125015 6.8749849 9 5.5 9 L 1.5 9 z" font-weight="400" font-family="sans-serif" white-space="normal" overflow="visible" fill="#000000"/></svg>
