<?xml version="1.0" encoding="utf-8"?>
<svg xmlns="http://www.w3.org/2000/svg" viewBox="0 0 16 16" fill="#000000"><path style="line-height:normal;text-indent:0;text-align:start;text-decoration-line:none;text-decoration-style:solid;text-decoration-color:#000;text-transform:none;block-progression:tb;isolation:auto;mix-blend-mode:normal" d="M 2.5 1 C 1.6774686 1 1 1.6774686 1 2.5 L 1 3.5 L 1 13.5 L 1 14 L 15 14 L 15 13.5 L 15 13 L 15 5.75 C 15 5.3414686 14.658531 5 14.25 5 L 11 5 L 11 3.5 L 11 2.5 C 11 1.6774686 10.322531 1 9.5 1 L 8.5 1 L 3.5 1 L 2.5 1 z M 2.5 2 L 3.5 2 L 8.5 2 L 9.5 2 C 9.7814686 2 10 2.2185314 10 2.5 L 10 3.5 L 10 13 L 7 13 L 7 11 L 5 11 L 5 13 L 2 13 L 2 3.5 L 2 2.5 C 2 2.2185314 2.2185314 2 2.5 2 z M 3 3 L 3 4 L 4 4 L 4 3 L 3 3 z M 5 3 L 5 4 L 7 4 L 7 3 L 5 3 z M 8 3 L 8 4 L 9 4 L 9 3 L 8 3 z M 3 5 L 3 6 L 4 6 L 4 5 L 3 5 z M 5 5 L 5 6 L 7 6 L 7 5 L 5 5 z M 8 5 L 8 6 L 9 6 L 9 5 L 8 5 z M 11 6 L 14 6 L 14 13 L 11 13 L 11 6 z M 3 7 L 3 8 L 4 8 L 4 7 L 3 7 z M 5 7 L 5 8 L 7 8 L 7 7 L 5 7 z M 8 7 L 8 8 L 9 8 L 9 7 L 8 7 z M 12 7 L 12 8 L 13 8 L 13 7 L 12 7 z M 3 9 L 3 10 L 4 10 L 4 9 L 3 9 z M 5 9 L 5 10 L 7 10 L 7 9 L 5 9 z M 8 9 L 8 10 L 9 10 L 9 9 L 8 9 z M 12 9 L 12 10 L 13 10 L 13 9 L 12 9 z M 3 11 L 3 12 L 4 12 L 4 11 L 3 11 z M 8 11 L 8 12 L 9 12 L 9 11 L 8 11 z M 12 11 L 12 12 L 13 12 L 13 11 L 12 11 z" fill="#000000"/></svg>
