<?xml version="1.0" encoding="UTF-8"?>
<svg xmlns="http://www.w3.org/2000/svg" xmlns:xlink="http://www.w3.org/1999/xlink" viewBox="0 0 16 16" version="1.1" fill="#000000"><g id="surface1" fill="#000000"><path style=" " d="M 3.40625 3 C 2.757813 3 2.207031 3.417969 2 4 L 14 4 C 13.792969 3.417969 13.242188 3 12.59375 3 Z M 2.5 5 C 1.675781 5 1 5.675781 1 6.5 L 1 11.5 C 1 12.324219 1.675781 13 2.5 13 L 13.5 13 C 14.324219 13 15 12.324219 15 11.5 L 15 6.5 C 15 5.675781 14.324219 5 13.5 5 Z M 3 6 L 13 6 C 13 6.546875 13.453125 7 14 7 L 14 11 C 13.453125 11 13 11.453125 13 12 L 3 12 C 3 11.453125 2.546875 11 2 11 L 2 7 C 2.546875 7 3 6.546875 3 6 Z M 8 7 C 6.902344 7 6 7.902344 6 9 C 6 10.097656 6.902344 11 8 11 C 9.097656 11 10 10.097656 10 9 C 10 7.902344 9.097656 7 8 7 Z M 4 8 C 3.449219 8 3 8.449219 3 9 C 3 9.550781 3.449219 10 4 10 C 4.550781 10 5 9.550781 5 9 C 5 8.449219 4.550781 8 4 8 Z M 8 8 C 8.558594 8 9 8.441406 9 9 C 9 9.558594 8.558594 10 8 10 C 7.441406 10 7 9.558594 7 9 C 7 8.441406 7.441406 8 8 8 Z M 12 8 C 11.449219 8 11 8.449219 11 9 C 11 9.550781 11.449219 10 12 10 C 12.550781 10 13 9.550781 13 9 C 13 8.449219 12.550781 8 12 8 Z " fill="#000000"/></g></svg>
