<?xml version="1.0" encoding="UTF-8"?>
<svg xmlns="http://www.w3.org/2000/svg" xmlns:xlink="http://www.w3.org/1999/xlink" viewBox="0 0 16 16" version="1.1" fill="#000000"><g id="surface1" fill="#000000"><path style=" " d="M 7.5 1 C 6.675781 1 6 1.675781 6 2.5 L 6 3 L 4.265625 3 C 3.589844 3 2.992188 3.460938 2.820313 4.113281 L 1.1875 10.230469 C 1.0625 10.691406 1 11.167969 1 11.644531 L 1 12.492188 C 1 13.316406 1.675781 13.992188 2.5 13.992188 L 12.5 14 C 13.324219 14 14 13.324219 14 12.5 L 14 11.65625 C 14 11.175781 13.9375 10.699219 13.8125 10.238281 L 13.8125 10.234375 L 12.074219 4.113281 C 11.898438 3.460938 11.300781 3 10.625 3 L 9 3 L 9 2.5 C 9 1.675781 8.324219 1 7.5 1 Z M 7.5 2 C 7.78125 2 8 2.21875 8 2.5 L 8 3 L 7 3 L 7 2.5 C 7 2.21875 7.21875 2 7.5 2 Z M 4.265625 4 L 10.625 4 C 10.855469 4 11.046875 4.148438 11.109375 4.371094 L 11.109375 4.378906 L 12.847656 10.503906 C 12.949219 10.878906 13 11.265625 13 11.65625 L 13 12.5 C 13 12.78125 12.78125 13 12.5 13 L 2.5 12.992188 C 2.21875 12.992188 2 12.773438 2 12.492188 L 2 11.644531 C 2 11.253906 2.050781 10.867188 2.152344 10.484375 L 3.785156 4.371094 C 3.84375 4.148438 4.039063 4 4.265625 4 Z M 7.011719 5 L 7.011719 6 L 6.5 6 C 5.675781 6 5 6.675781 5 7.5 C 5 8.324219 5.675781 9 6.5 9 L 8.5 9 C 8.78125 9 9 9.21875 9 9.5 C 9 9.78125 8.78125 10 8.5 10 L 5 10 L 5 11 L 7.011719 11 L 7.011719 12 L 8.011719 12 L 8.011719 11 L 8.5 11 C 9.324219 11 10 10.324219 10 9.5 C 10 8.675781 9.324219 8 8.5 8 L 6.5 8 C 6.21875 8 6 7.78125 6 7.5 C 6 7.21875 6.21875 7 6.5 7 L 9 7 L 9 6 L 8.011719 6 L 8.011719 5 Z " fill="#000000"/></g></svg>
