<?xml version="1.0" encoding="utf-8"?>
<svg xmlns="http://www.w3.org/2000/svg" viewBox="0 0 16 16" fill="#000000"><path style="line-height:normal;text-indent:0;text-align:start;text-decoration-line:none;text-decoration-style:solid;text-decoration-color:#000;text-transform:none;block-progression:tb;isolation:auto;mix-blend-mode:normal" d="M 11.5 1 C 9.6525356 1 8.1460339 2.4501597 8.0234375 4.2675781 A 0.50005 0.50005 0 0 0 7.9746094 4.3261719 L 2.0996094 12.201172 A 0.50005 0.50005 0 0 0 2.1464844 12.853516 L 3.1464844 13.853516 A 0.50005 0.50005 0 0 0 3.7988281 13.900391 L 11.673828 8.0253906 A 0.50005 0.50005 0 0 0 11.734375 7.9765625 C 12.535552 7.9220679 13.259766 7.6001066 13.824219 7.09375 A 0.50005 0.50005 0 0 0 13.828125 7.0917969 A 0.50005 0.50005 0 0 0 14.091797 6.828125 C 14.649745 6.2076663 15 5.3963404 15 4.5 C 15 2.5729257 13.427074 1 11.5 1 z M 11.5 2 C 12.886634 2 14 3.1133658 14 4.5 C 14 5.0111954 13.846479 5.484083 13.585938 5.8789062 L 10.121094 2.4140625 C 10.515917 2.1535209 10.988805 2 11.5 2 z M 9.4140625 3.1210938 L 12.878906 6.5859375 C 12.484083 6.8464791 12.011195 7 11.5 7 C 10.113366 7 9 5.8866342 9 4.5 C 9 3.9888046 9.1535209 3.515917 9.4140625 3.1210938 z M 8.2167969 5.671875 C 8.5700157 6.6544748 9.3455252 7.4299843 10.328125 7.7832031 L 3.546875 12.839844 L 3.1601562 12.453125 L 8.2167969 5.671875 z" font-weight="400" font-family="sans-serif" white-space="normal" overflow="visible" fill="#000000"/></svg>
