<?xml version="1.0" encoding="utf-8"?>
<svg xmlns="http://www.w3.org/2000/svg" viewBox="0 0 16 16" fill="#000000"><path style="line-height:normal;text-indent:0;text-align:start;text-decoration-line:none;text-decoration-style:solid;text-decoration-color:#000;text-transform:none;block-progression:tb;isolation:auto;mix-blend-mode:normal" d="M 1 3 C 1 4.0977273 1.9022727 5 3 5 C 3.5984122 5 4.1322615 4.7264475 4.5 4.3046875 C 4.8677385 4.7264475 5.4015878 5 6 5 C 6.5984122 5 7.1322615 4.7264475 7.5 4.3046875 C 7.8677385 4.7264475 8.4015878 5 9 5 C 9.598412 5 10.132261 4.7264475 10.5 4.3046875 C 10.867739 4.7264475 11.401588 5 12 5 C 13.097727 5 14 4.0977273 14 3 L 13 3 C 13 3.5522727 12.552273 4 12 4 C 11.447727 4 11 3.5522727 11 3 L 10 3 C 10 3.5522727 9.5522727 4 9 4 C 8.4477273 4 8 3.5522727 8 3 L 7 3 C 7 3.5522727 6.5522727 4 6 4 C 5.4477273 4 5 3.5522727 5 3 L 4 3 C 4 3.5522727 3.5522727 4 3 4 C 2.4477273 4 2 3.5522727 2 3 L 1 3 z M 1 7 C 1 8.0977273 1.9022727 9 3 9 C 3.5984122 9 4.1322615 8.7264475 4.5 8.3046875 C 4.8677385 8.7264475 5.4015878 9 6 9 C 6.5984122 9 7.1322615 8.7264475 7.5 8.3046875 C 7.8677385 8.7264475 8.4015878 9 9 9 C 9.598412 9 10.132261 8.7264475 10.5 8.3046875 C 10.867739 8.7264475 11.401588 9 12 9 C 13.097727 9 14 8.0977273 14 7 L 13 7 C 13 7.5522727 12.552273 8 12 8 C 11.447727 8 11 7.5522727 11 7 L 10 7 C 10 7.5522727 9.5522727 8 9 8 C 8.4477273 8 8 7.5522727 8 7 L 7 7 C 7 7.5522727 6.5522727 8 6 8 C 5.4477273 8 5 7.5522727 5 7 L 4 7 C 4 7.5522727 3.5522727 8 3 8 C 2.4477273 8 2 7.5522727 2 7 L 1 7 z M 1 11 C 1 12.097727 1.9022727 13 3 13 C 3.5984122 13 4.1322615 12.726447 4.5 12.304688 C 4.8677385 12.726447 5.4015878 13 6 13 C 6.5984122 13 7.1322615 12.726448 7.5 12.304688 C 7.8677385 12.726448 8.4015878 13 9 13 C 9.598412 13 10.132261 12.726447 10.5 12.304688 C 10.867739 12.726447 11.401588 13 12 13 C 13.097727 13 14 12.097727 14 11 L 13 11 C 13 11.552273 12.552273 12 12 12 C 11.447727 12 11 11.552273 11 11 L 10 11 C 10 11.552273 9.5522727 12 9 12 C 8.4477273 12 8 11.552273 8 11 L 7 11 C 7 11.552273 6.5522727 12 6 12 C 5.4477273 12 5 11.552273 5 11 L 4 11 C 4 11.552273 3.5522727 12 3 12 C 2.4477273 12 2 11.552273 2 11 L 1 11 z" fill="#000000"/></svg>
