<?xml version="1.0" encoding="UTF-8"?>
<svg xmlns="http://www.w3.org/2000/svg" xmlns:xlink="http://www.w3.org/1999/xlink" viewBox="0 0 16 16" version="1.1" fill="#000000"><g id="surface1" fill="#000000"><path style=" " d="M 3.5 2 C 2.675781 2 2 2.675781 2 3.5 L 2 12.5 C 2 13.324219 2.675781 14 3.5 14 L 12.5 14 C 13.324219 14 14 13.324219 14 12.5 L 14 3.5 C 14 2.675781 13.324219 2 12.5 2 Z M 3.5 3 L 12.5 3 C 12.78125 3 13 3.21875 13 3.5 L 13 12.5 C 13 12.78125 12.78125 13 12.5 13 L 3.5 13 C 3.21875 13 3 12.78125 3 12.5 L 3 3.5 C 3 3.21875 3.21875 3 3.5 3 Z M 11.269531 5.023438 L 7 9.292969 L 4.726563 7.023438 L 4.023438 7.726563 L 7 10.707031 L 11.980469 5.726563 Z " fill="#000000"/></g></svg>
