<?xml version="1.0" encoding="UTF-8"?>
<svg xmlns="http://www.w3.org/2000/svg" xmlns:xlink="http://www.w3.org/1999/xlink" viewBox="0 0 16 16" version="1.1" fill="#000000"><g id="surface1" fill="#000000"><path style=" " d="M 13.484375 2 C 13.339844 2.003906 13.207031 2.070313 13.113281 2.179688 C 13.113281 2.179688 10.800781 5 6 5 L 2.5 5 C 1.675781 5 1 5.675781 1 6.5 L 1 8.546875 L 1.929688 13.195313 C 2.019531 13.660156 2.4375 14 2.910156 14 L 4 14 C 4.621094 14 5.101563 13.410156 4.980469 12.804688 L 4.980469 12.800781 L 4.421875 10 L 6 10 C 10.800781 10 13.113281 12.820313 13.113281 12.820313 C 13.25 12.984375 13.472656 13.042969 13.671875 12.972656 C 13.867188 12.898438 14 12.710938 14 12.5 L 14 9.011719 C 14.582031 8.777344 15 8.191406 15 7.5 C 15 6.808594 14.582031 6.222656 14 5.988281 L 14 2.5 C 14 2.363281 13.945313 2.234375 13.847656 2.140625 C 13.75 2.046875 13.621094 1.996094 13.484375 2 Z M 13 3.527344 L 13 11.472656 C 12.078125 10.617188 10.042969 9 6 9 L 5 9 L 5 6 L 6 6 C 10.042969 6 12.078125 4.382813 13 3.527344 Z M 2.5 6 L 4 6 L 4 9 L 3.199219 9 L 4 13 L 2.910156 13 L 2 8.453125 L 2 6.5 C 2 6.21875 2.21875 6 2.5 6 Z " fill="#000000"/></g></svg>
