<?xml version="1.0" encoding="UTF-8"?>
<svg xmlns="http://www.w3.org/2000/svg" xmlns:xlink="http://www.w3.org/1999/xlink" viewBox="0 0 16 16" version="1.1" fill="#000000"><g id="surface1" fill="#000000"><path style=" " d="M 3 3.003906 C 2.488281 3.003906 1.972656 3.199219 1.585938 3.585938 C 0.808594 4.363281 0.808594 5.636719 1.585938 6.414063 C 2.363281 7.191406 3.636719 7.191406 4.414063 6.414063 C 4.488281 6.339844 4.550781 6.257813 4.609375 6.171875 L 7.351563 7.996094 L 4.609375 9.828125 C 4.550781 9.742188 4.488281 9.660156 4.414063 9.585938 C 3.636719 8.808594 2.363281 8.808594 1.585938 9.585938 C 0.808594 10.363281 0.808594 11.636719 1.585938 12.414063 C 2.363281 13.191406 3.636719 13.191406 4.414063 12.414063 C 4.859375 11.96875 5.039063 11.367188 4.976563 10.78125 L 8.257813 8.597656 L 13.375 12 L 15 12 L 4.976563 5.21875 C 5.039063 4.636719 4.859375 4.03125 4.414063 3.585938 C 4.027344 3.199219 3.511719 3.003906 3 3.003906 Z M 3 3.996094 C 3.253906 3.996094 3.507813 4.09375 3.707031 4.292969 C 4.101563 4.6875 4.101563 5.3125 3.707031 5.707031 C 3.3125 6.101563 2.6875 6.101563 2.292969 5.707031 C 1.898438 5.3125 1.898438 4.6875 2.292969 4.292969 C 2.492188 4.09375 2.746094 3.996094 3 3.996094 Z M 13.375 4 L 9.148438 6.796875 L 10.050781 7.398438 L 15 4 Z M 3 9.996094 C 3.253906 9.996094 3.507813 10.09375 3.707031 10.292969 C 4.101563 10.6875 4.101563 11.3125 3.707031 11.707031 C 3.3125 12.101563 2.6875 12.101563 2.292969 11.707031 C 1.898438 11.3125 1.898438 10.6875 2.292969 10.292969 C 2.492188 10.09375 2.746094 9.996094 3 9.996094 Z " fill="#000000"/></g></svg>
