<?xml version="1.0" encoding="utf-8"?>
<svg xmlns="http://www.w3.org/2000/svg" viewBox="0 0 16 16" fill="#000000"><path d="M13.339,8.951c0.357-0.17,0.642-0.375,0.838-0.607l0.271-0.318l-1.608-1.964c0.332-0.148,0.652-0.355,0.866-0.644 l0.232-0.314L10.5,0.919L8.344,3.543c-0.306-0.286-0.687-0.48-1.111-0.53C6.883,2.396,6.224,2,5.5,2S4.117,2.396,3.767,3.014 C2.773,3.129,2,3.976,2,5c0,0.123,0.011,0.244,0.034,0.364C1.401,5.772,1,6.482,1,7.25c0,0.834,0.461,1.58,1.161,1.968 C2.055,9.463,2,9.729,2,10c0,1.103,0.897,2,2,2h1v2h1v-2h0.623c0.73,0.551,1.954,0.911,3.377,0.981V14h1v-1.019 c1.901-0.093,3.453-0.705,3.938-1.59l0.162-0.296L13.339,8.951z M3,10c0-0.255,0.099-0.5,0.28-0.689l0.629-0.664L3.011,8.475 C2.425,8.362,2,7.847,2,7.25c0-0.514,0.326-0.982,0.812-1.165l0.502-0.188L3.091,5.409C3.031,5.277,3,5.14,3,5 c0-0.552,0.431-1.02,1.056-0.992l0.38,0.025l0.125-0.359C4.701,3.271,5.079,3,5.5,3s0.799,0.271,0.939,0.673L6.62,4.025L7,4 c0.276,0,0.53,0.116,0.714,0.31L7.061,5.105l0.234,0.313c0.214,0.289,0.534,0.496,0.866,0.644L6.553,8.026l0.27,0.318 C7.02,8.576,7.304,8.781,7.662,8.951L5.976,11H4C3.449,11,3,10.552,3,10z M10.5,12c-1.575,0-2.831-0.399-3.354-0.848l2.222-2.69 L8.634,8.25C8.349,8.167,8.1,8.064,7.907,7.951l1.999-2.429L9.127,5.334C8.81,5.257,8.567,5.158,8.393,5.059L10.5,2.5l2.106,2.559 c-0.174,0.1-0.416,0.198-0.733,0.275l-0.779,0.188l1.999,2.429c-0.193,0.113-0.441,0.216-0.727,0.299l-0.732,0.212l2.221,2.69 C13.331,11.601,12.075,12,10.5,12z" fill="#000000"/></svg>
