<?xml version="1.0" encoding="UTF-8"?>
<svg xmlns="http://www.w3.org/2000/svg" xmlns:xlink="http://www.w3.org/1999/xlink" viewBox="0 0 16 16" version="1.1" fill="#000000"><g id="surface1" fill="#000000"><path style=" " d="M 7.5 1 C 6.851563 1 6.300781 1.421875 6.09375 2 L 3.5 2 C 2.675781 2 2 2.675781 2 3.5 L 2 12.5 C 2 13.324219 2.675781 14 3.5 14 L 11.5 14 C 12.324219 14 13 13.324219 13 12.5 L 13 3.5 C 13 2.675781 12.324219 2 11.5 2 L 8.90625 2 C 8.699219 1.421875 8.148438 1 7.5 1 Z M 7.5 2 C 7.78125 2 8 2.21875 8 2.5 L 8 3 L 9 3 L 9 4 L 6 4 L 6 3 L 7 3 L 7 2.5 C 7 2.21875 7.21875 2 7.5 2 Z M 3.5 3 L 5 3 L 5 5 L 10 5 L 10 3 L 11.5 3 C 11.78125 3 12 3.21875 12 3.5 L 12 12.5 C 12 12.78125 11.78125 13 11.5 13 L 3.5 13 C 3.21875 13 3 12.78125 3 12.5 L 3 3.5 C 3 3.21875 3.21875 3 3.5 3 Z M 10.5 6.042969 L 7 9.542969 L 5.851563 8.398438 L 5.5 8.042969 L 4.792969 8.75 L 5.148438 9.101563 L 7 10.957031 L 11.207031 6.75 Z " fill="#000000"/></g></svg>
