<?xml version="1.0" encoding="utf-8"?>
<!-- Generator: Adobe Illustrator 21.1.0, SVG Export Plug-In . SVG Version: 6.00 Build 0)  -->
<svg xmlns="http://www.w3.org/2000/svg" xmlns:xlink="http://www.w3.org/1999/xlink" version="1.1" id="Layer_1" x="0px" y="0px" viewBox="0 0 16 16" style="enable-background:new 0 0 16 16" xml:space="preserve" fill="#000000">
<g fill="#000000">
	<path d="M7,11.333C7,11.517,8,12,8,12s1-0.483,1-0.667S8.368,11,8,11S7,11.149,7,11.333z" fill="#000000"/>
	<path d="M13.57,5.007C13.802,4.606,14,4.09,14,3.464C14,1.938,12.859,1,12.042,1c-0.174,0-0.336,0.091-0.427,0.24   c-0.265,0.435-0.699,0.835-0.955,1.051C9.755,2.024,8.02,2,8,2S6.245,2.024,5.34,2.291C5.084,2.075,4.65,1.674,4.385,1.24   C4.295,1.091,4.133,1,3.958,1C3.141,1,2,1.938,2,3.464C2,4.09,2.198,4.606,2.43,5.007C1.267,6.878,1,9.204,1,12.5   C1,12.776,1.224,13,1.5,13h3.88c0.605,0.703,1.809,0.966,2.64,1c0.802-0.033,1.998-0.297,2.6-1H14.5c0.276,0,0.5-0.224,0.5-0.5   C15,9.204,14.733,6.878,13.57,5.007z M12.258,2.068C12.563,2.227,13,2.67,13,3.464c0,0.229-0.047,0.432-0.11,0.621   c-0.377-0.438-0.816-0.854-1.334-1.253C11.777,2.627,12.034,2.366,12.258,2.068z M3,3.464C3,2.67,3.438,2.227,3.742,2.068   c0.224,0.297,0.481,0.559,0.702,0.763C3.926,3.23,3.487,3.646,3.11,4.085C3.047,3.896,3,3.693,3,3.464z M10.992,12   c-0.063-1.882-0.472-3.247-0.794-4.051C10.99,7.693,11,6,11,6L8.5,7l0.362,0.5c0,0,0.023,0.06,0.087,0.136l-0.001,0   c0.01,0.016,0.941,1.61,1.034,4.432C9.888,12.755,8.487,12.978,8.021,13c-0.413-0.017-1.907-0.23-2.003-0.934   c0.093-2.821,1.023-4.413,1.034-4.43l-0.001,0C7.115,7.56,7.138,7.5,7.138,7.5L7.5,7L5,6c0,0,0.01,1.693,0.803,1.949   C5.481,8.753,5.072,10.118,5.008,12H5H2.004c0.003-0.345,0.009-0.68,0.02-1H3.5C3.776,11,4,10.776,4,10.5S3.776,10,3.5,10H2.074   c0.025-0.349,0.058-0.68,0.099-1H3.5C3.776,9,4,8.776,4,8.5S3.776,8,3.5,8H2.335c0.419-2.005,1.32-3.429,3.172-4.709   C5.809,3.133,7.243,3,8,3s2.191,0.133,2.493,0.291c1.851,1.28,2.753,2.704,3.172,4.709H12.5C12.224,8,12,8.224,12,8.5   S12.224,9,12.5,9h1.327c0.04,0.32,0.074,0.651,0.099,1H12.5c-0.276,0-0.5,0.224-0.5,0.5s0.224,0.5,0.5,0.5h1.476   c0.011,0.32,0.017,0.655,0.02,1H11H10.992z" fill="#000000"/>
	<path d="M9.511,4C9.469,3.993,8.676,3.991,8.004,4.664C7.349,4.009,6.542,4,6.5,4C6.227,4,6.007,4.22,6.003,4.494   S6.22,4.993,6.494,5c0.028,0,0.695,0.026,1.063,0.731C7.642,5.895,7.81,5.998,7.994,6C7.996,6,7.998,6,8,6   c0.182,0,0.35-0.099,0.438-0.259C8.838,5.014,9.47,5,9.489,5C9.493,5,9.497,5,9.5,5C9.771,5,9.994,4.783,10,4.511   C10.006,4.235,9.787,4.006,9.511,4z" fill="#000000"/>
</g>
</svg>
