<?xml version="1.0" encoding="utf-8"?>
<svg xmlns="http://www.w3.org/2000/svg" viewBox="0 0 16 16" fill="#000000"><path style="line-height:normal;text-indent:0;text-align:start;text-decoration-line:none;text-decoration-style:solid;text-decoration-color:#000;text-transform:none;block-progression:tb;isolation:auto;mix-blend-mode:normal" d="M 7.4765625 1.9980469 L 7.4902344 2 C 5.8383525 1.9524913 4.521381 2.6215828 3.5 3.484375 C 2.478619 4.3471672 1.721139 5.4033313 1.1054688 6.1933594 A 0.50005 0.50005 0 1 0 1.8945312 6.8066406 C 2.5288611 5.9926687 3.2466623 5.0065047 4.1445312 4.2480469 C 5.0402095 3.4914398 6.0829985 2.9614272 7.4511719 2.9980469 A 0.50005 0.50005 0 0 0 7.4980469 3.0019531 C 8.2842586 3.0153418 9 3.6787753 9 4.4960938 C 9 4.9483496 8.8642236 5.3329105 8.6523438 5.5878906 C 8.4404637 5.8428708 8.1653199 5.9902344 7.75 5.9902344 C 7.669472 5.9902344 7.4588447 5.9301754 7.2949219 5.8105469 C 7.1309991 5.6909183 7.0175756 5.5311602 6.9882812 5.3945312 A 0.50005 0.50005 0 1 0 6.0117188 5.6054688 C 6.1074244 6.0518398 6.3897509 6.3870661 6.7050781 6.6171875 C 7.0204053 6.8473089 7.3725284 6.9902344 7.75 6.9902344 C 8.4356801 6.9902344 9.0340049 6.6933324 9.421875 6.2265625 C 9.6104199 5.9996641 9.7497043 5.7369145 9.8457031 5.453125 A 0.50005 0.50005 0 0 0 9.9414062 5.3867188 C 10.925115 4.5814325 11.705246 4.241914 12.220703 4.0976562 C 12.736161 3.9533985 12.929687 3.9941406 12.929688 3.9941406 A 0.50005 0.50005 0 0 0 13 4 C 13.557469 4 14 4.4425314 14 5 C 14 5.5574686 13.557469 6 13 6 C 12.562213 6 12.240045 5.7371641 12.095703 5.3320312 A 0.50005 0.50005 0 1 0 11.154297 5.6679688 C 11.423955 6.424836 12.133787 7 13 7 C 14.098531 7 15 6.0985314 15 5 C 15 3.9115032 14.110262 3.0279791 13.025391 3.0117188 C 12.990051 3.0080588 12.581315 2.9584118 11.951172 3.1347656 C 11.432712 3.2798634 10.752976 3.5777631 9.9609375 4.1269531 C 9.7810093 2.9591775 8.7785471 2.0838634 7.6152344 2.015625 A 0.50005 0.50005 0 0 0 7.4765625 1.9980469 z M 4.5 9 C 3.0397395 9 2.0144761 9.6693834 1.2695312 10.056641 A 0.50005 0.50005 0 1 0 1.7304688 10.943359 C 2.5475239 10.518616 3.3422605 10 4.5 10 C 5.0271763 10 5.4951199 10.20509 6.0429688 10.455078 C 6.5908176 10.705066 7.218579 11 8 11 C 8.781421 11 9.4105311 10.705114 9.9589844 10.455078 C 10.507438 10.205042 10.975214 10 11.5 10 C 12.677286 10 13.272213 10.42774 14.271484 10.943359 A 0.50005 0.50005 0 1 0 14.728516 10.056641 C 13.789787 9.57226 12.932714 9 11.5 9 C 10.719786 9 10.091265 9.2949576 9.5429688 9.5449219 C 8.9946719 9.7948862 8.526579 10 8 10 C 7.473421 10 7.0049324 9.7949338 6.4570312 9.5449219 C 5.9091301 9.29491 5.2818237 9 4.5 9 z M 4.5 12 C 3.0397395 12 2.0144761 12.669384 1.2695312 13.056641 A 0.50005 0.50005 0 1 0 1.7304688 13.943359 C 2.5475239 13.518616 3.3422605 13 4.5 13 C 5.0271763 13 5.4951199 13.20509 6.0429688 13.455078 C 6.5908176 13.705066 7.218579 14 8 14 C 8.781421 14 9.4105311 13.705114 9.9589844 13.455078 C 10.507438 13.205042 10.975214 13 11.5 13 C 12.677286 13 13.272213 13.42774 14.271484 13.943359 A 0.50005 0.50005 0 1 0 14.728516 13.056641 C 13.789787 12.57226 12.932714 12 11.5 12 C 10.719786 12 10.091265 12.294958 9.5429688 12.544922 C 8.9946719 12.794886 8.526579 13 8 13 C 7.473421 13 7.0049324 12.794934 6.4570312 12.544922 C 5.9091301 12.29491 5.2818237 12 4.5 12 z" font-weight="400" font-family="sans-serif" white-space="normal" overflow="visible" fill="#000000"/></svg>
