<?xml version="1.0" encoding="UTF-8"?>
<svg xmlns="http://www.w3.org/2000/svg" xmlns:xlink="http://www.w3.org/1999/xlink" viewBox="0 0 16 16" version="1.1" fill="#000000"><g id="surface1" fill="#000000"><path style=" " d="M 5 0 L 5 2.050781 C 4.410156 2.136719 3.871094 2.363281 3.414063 2.707031 L 1.726563 1.023438 L 1.023438 1.726563 L 2.707031 3.414063 C 2.363281 3.871094 2.136719 4.410156 2.050781 5 L 0 5 L 0 6 L 2.058594 6 C 2.171875 6.777344 2.535156 7.464844 3.070313 7.992188 C 3.167969 8.085938 3.257813 8.191406 3.363281 8.273438 C 3.558594 8.425781 3.777344 8.546875 4.003906 8.65625 L 4 8.5 C 4 7.671875 4.671875 7 5.449219 6.996094 L 5.984375 7.007813 L 6.046875 6.574219 C 6.238281 5.21875 7.339844 4.183594 8.664063 4.03125 C 8.5625 3.8125 8.441406 3.601563 8.296875 3.40625 L 9.976563 1.726563 L 9.273438 1.023438 L 7.585938 2.707031 C 7.128906 2.367188 6.589844 2.144531 6 2.058594 L 6 0 Z M 10.347656 2.773438 L 9.625 3.496094 C 10.117188 3.8125 10.523438 4.265625 10.765625 4.828125 L 10.941406 5.257813 L 11.378906 5.109375 C 11.605469 5.035156 11.808594 5 12 5 C 13.101563 5 14 5.898438 14 7 C 14 7.234375 13.953125 7.472656 13.859375 7.710938 L 13.71875 8.09375 L 14.0625 8.3125 C 14.648438 8.683594 15 9.3125 15 10 C 15 11.101563 14.101563 12 13 12 L 3 12 C 1.898438 12 1 11.101563 1 10 C 1 9.285156 1.382813 8.640625 1.972656 8.285156 C 1.769531 8.027344 1.589844 7.746094 1.445313 7.445313 C 0.574219 7.980469 0 8.933594 0 10 C 0 11.652344 1.347656 13 3 13 L 13 13 C 14.652344 13 16 11.652344 16 10 C 16 9.101563 15.601563 8.261719 14.914063 7.695313 C 14.972656 7.464844 15 7.230469 15 7 C 15 5.179688 13.390625 3.695313 11.492188 4.046875 C 11.207031 3.535156 10.8125 3.109375 10.347656 2.773438 Z M 5.5 3 C 6.085938 3 6.613281 3.203125 7.039063 3.539063 C 6.113281 4.066406 5.40625 4.953125 5.132813 6.023438 C 4.472656 6.121094 3.902344 6.484375 3.515625 7.007813 C 3.199219 6.589844 3 6.070313 3 5.5 C 3 4.113281 4.113281 3 5.5 3 Z " fill="#000000"/></g></svg>
