<?xml version="1.0" encoding="UTF-8"?>
<svg xmlns="http://www.w3.org/2000/svg" xmlns:xlink="http://www.w3.org/1999/xlink" viewBox="0 0 16 16" version="1.1" fill="#000000"><g id="surface1" fill="#000000"><path style=" " d="M 3 1 C 2.238281 1 1.589844 1.097656 1 1.25 L 1 2.265625 C 1.550781 2.089844 2.214844 2 3 2 C 3.117188 2 4.519531 2.003906 5.445313 2.007813 L 5.023438 2.867188 C 4.6875 3.425781 3.640625 4.679688 1 4.945313 L 1 5.945313 C 4.058594 5.667969 5.378906 4.1875 5.855469 3.414063 C 6.929688 3.945313 7.296875 5.03125 7.0625 6.953125 L 7 7.476563 L 7.53125 7.511719 C 7.796875 7.527344 8 7.738281 8 8 C 8 8.410156 7.660156 8.976563 7.5 9 C 7.460938 9 7.3125 8.996094 7.023438 8.921875 L 6.5625 8.8125 L 6.390625 9.371094 C 5.816406 11.542969 4.171875 13 3 13 C 2.386719 13 1.648438 12.59375 1 11.90625 L 1 13.25 C 1.636719 13.722656 2.324219 14 3 14 C 4.6875 14 6.484375 12.296875 7.253906 9.984375 C 7.339844 9.992188 7.421875 10 7.5 10 C 8.402344 10 9 8.796875 9 8 C 9 7.398438 8.632813 6.871094 8.105469 6.640625 C 8.207031 5.527344 8.191406 3.457031 6.3125 2.515625 L 7.054688 1.015625 L 6.25 1.011719 C 6.25 1.011719 3.171875 1 3 1 Z M 11.980469 4.042969 C 10.785156 4.957031 10 6.382813 10 8 C 10 9.617188 10.785156 11.042969 11.980469 11.957031 L 12.578125 11.171875 C 11.625 10.4375 11 9.292969 11 8 C 11 6.707031 11.625 5.5625 12.582031 4.832031 Z M 13.199219 5.640625 C 12.480469 6.1875 12 7.027344 12 8 C 12 8.972656 12.480469 9.808594 13.199219 10.359375 L 13.796875 9.578125 C 13.316406 9.210938 13 8.648438 13 8 C 13 7.351563 13.320313 6.792969 13.800781 6.429688 Z M 1.5 7 C 1.222656 7 1 7.222656 1 7.5 C 1 7.777344 1.222656 8 1.5 8 C 1.777344 8 2 7.777344 2 7.5 C 2 7.222656 1.777344 7 1.5 7 Z M 4.5 7 C 4.222656 7 4 7.222656 4 7.5 C 4 7.777344 4.222656 8 4.5 8 C 4.777344 8 5 7.777344 5 7.5 C 5 7.222656 4.777344 7 4.5 7 Z M 14.40625 7.21875 C 14.164063 7.402344 14 7.675781 14 8 C 14 8.324219 14.164063 8.597656 14.40625 8.78125 L 15 8 Z " fill="#000000"/></g></svg>
