<?xml version="1.0" encoding="utf-8"?>
<svg xmlns="http://www.w3.org/2000/svg" viewBox="0 0 16 16" fill="#000000"><path style="line-height:normal;text-indent:0;text-align:start;text-decoration-line:none;text-decoration-style:solid;text-decoration-color:#000;text-transform:none;block-progression:tb;isolation:auto;mix-blend-mode:normal" d="M 7.5 1 C 6.9700744 1 6.5034565 1.2831004 6.2363281 1.703125 C 6.0175072 1.577643 5.768065 1.5 5.5 1.5 C 4.6774686 1.5 4 2.1774686 4 3 L 4 3.09375 C 3.84275 3.0371335 3.6756701 3 3.5 3 C 2.6774686 3 2 3.6774686 2 4.5 L 2 10.021484 C 2 12.21528 3.811058 14 6 14 L 8 14 C 9.1685028 14 10.115573 13.402946 10.935547 12.697266 L 13.091797 10.976562 L 13.052734 11.003906 C 13.597203 10.650645 14 10.128316 14 9.5 C 14 9.3608986 13.979891 9.2193648 13.939453 9.0800781 C 13.709773 8.2896193 12.86936 7.8312084 12.080078 8.0605469 L 12.054688 8.0683594 L 11 8.5019531 L 11 3.5 C 11 2.6774686 10.322531 2 9.5 2 C 9.2971723 2 9.1029844 2.0427816 8.9257812 2.1171875 C 8.7723382 1.6316707 8.3528043 1.280004 7.8417969 1.1425781 A 0.50005 0.50005 0 0 0 7.5 1 z M 7.5 2 C 7.7814686 2 8 2.2185314 8 2.5 L 8 3.5 L 8 7 L 9 7 L 9 3.5 C 9 3.2185314 9.2185314 3 9.5 3 C 9.7814686 3 10 3.2185314 10 3.5 L 10 9.9980469 L 12.363281 9.0214844 C 12.63233 8.946087 12.902632 9.0914953 12.980469 9.359375 C 12.994031 9.4060883 13 9.4551014 13 9.5 C 13 9.7396836 12.897342 9.9132806 12.507812 10.166016 L 12.486328 10.179688 L 10.289062 11.933594 L 10.283203 11.939453 C 9.5392139 12.579733 8.8294972 13 8 13 L 6 13 C 4.352942 13 3 11.665688 3 10.021484 L 3 4.5 C 3 4.2185314 3.2185314 4 3.5 4 C 3.7814686 4 4 4.2185314 4 4.5 L 4 7 L 5 7 L 5 4.5 L 5 3 C 5 2.7185314 5.2185314 2.5 5.5 2.5 C 5.7814686 2.5 6 2.7185314 6 3 L 6 7 L 7 7 L 7 2.5 C 7 2.2185314 7.2185314 2 7.5 2 z" font-weight="400" font-family="sans-serif" white-space="normal" overflow="visible" fill="#000000"/></svg>
