<?xml version="1.0" encoding="utf-8"?>
<svg xmlns="http://www.w3.org/2000/svg" viewBox="0 0 16 16" fill="#000000"><path d="M 6.34375 2.1796875 C 4.93775 2.6356875 3.9941406 3.869 3.9941406 5.25 C 3.9941406 5.769 4.1292813 6.2593125 4.3632812 6.6953125 C 3.8672812 6.7113125 3.3767344 6.8376562 2.9277344 7.0976562 C 1.7317344 7.7886562 1.1334063 9.2249219 1.4414062 10.669922 L 2.421875 10.460938 C 2.204875 9.4409375 2.6087344 8.4397969 3.4277344 7.9667969 C 4.5037344 7.3457969 5.9418125 7.8118125 6.6328125 9.0078125 C 6.9718125 9.5948125 7.0804063 10.263578 6.9414062 10.892578 C 6.8054062 11.505578 6.4485937 12.007688 5.9335938 12.304688 C 5.1145938 12.777688 4.0435312 12.625734 3.2695312 11.927734 L 2.5996094 12.673828 C 3.2626094 13.270828 4.0864375 13.580078 4.8984375 13.580078 C 5.4314375 13.580078 5.9595937 13.446828 6.4335938 13.173828 C 6.8745937 12.918828 7.2359531 12.562719 7.5019531 12.136719 C 7.7679531 12.562719 8.1263594 12.918828 8.5683594 13.173828 C 9.0423594 13.447828 9.5695156 13.580078 10.103516 13.580078 C 10.915516 13.580078 11.740344 13.270828 12.402344 12.673828 L 11.732422 11.927734 C 10.958422 12.625734 9.8863594 12.777688 9.0683594 12.304688 C 8.5543594 12.007687 8.1965469 11.505578 8.0605469 10.892578 C 7.9205469 10.263578 8.0301406 9.5938125 8.3691406 9.0078125 C 9.0591406 7.8118125 10.498219 7.3457969 11.574219 7.9667969 C 12.393219 8.4397969 12.797078 9.4409375 12.580078 10.460938 L 13.560547 10.669922 C 13.866547 9.2249219 13.268266 7.7876563 12.072266 7.0976562 C 11.622266 6.8386562 11.132672 6.7113125 10.638672 6.6953125 C 10.872672 6.2593125 11.007812 5.7709531 11.007812 5.2519531 C 11.007812 3.8709531 10.06225 2.6346875 8.65625 2.1796875 L 8.3476562 3.1328125 C 9.3386562 3.4548125 10.003906 4.3059531 10.003906 5.2519531 C 10.003906 6.4949531 8.8790469 7.5058594 7.4980469 7.5058594 C 6.1170469 7.5058594 4.9941406 6.4949531 4.9941406 5.2519531 C 4.9941406 4.3059531 5.6613438 3.4548125 6.6523438 3.1328125 L 6.34375 2.1796875 z M 7.5 5 C 6.966 5 6.4608125 5.1238906 6.0078125 5.3378906 C 6.0368125 5.6818906 6.2322969 5.9852656 6.5292969 6.1972656 C 6.8282969 6.0712656 7.156 6.0019531 7.5 6.0019531 C 7.844 6.0019531 8.1717031 6.0712656 8.4707031 6.1972656 C 8.7677031 5.9852656 8.9631875 5.6818906 8.9921875 5.3378906 C 8.5391875 5.1238906 8.034 5 7.5 5 z M 7.5 8.0058594 C 7.777 8.0058594 8.0019531 8.2308125 8.0019531 8.5078125 C 8.0019531 8.7848125 7.777 9.0078125 7.5 9.0078125 C 7.223 9.0078125 6.9980469 8.7848125 6.9980469 8.5078125 C 6.9980469 8.2308125 7.223 8.0058594 7.5 8.0058594 z M 10.535156 8.6933594 C 10.344156 8.6933594 10.152656 8.7382656 9.9726562 8.8222656 C 9.8856563 9.5002656 9.533625 10.091281 9.015625 10.488281 C 9.021625 10.551281 9.0231094 10.613781 9.0371094 10.675781 C 9.1051094 10.983781 9.2670469 11.224766 9.4980469 11.384766 C 10.332047 10.803766 10.902188 9.8697813 10.992188 8.8007812 C 10.851187 8.7337812 10.699156 8.6933594 10.535156 8.6933594 z M 4.5078125 8.7089844 C 4.3338125 8.7003594 4.1628125 8.7292812 4.0078125 8.8007812 C 4.0968125 9.8697812 4.6669531 10.803766 5.5019531 11.384766 C 5.7329531 11.224766 5.8938906 10.983781 5.9628906 10.675781 C 5.9768906 10.613781 5.9803281 10.551281 5.9863281 10.488281 C 5.4723281 10.095281 5.1202969 9.5117969 5.0292969 8.8417969 C 4.8592969 8.7627969 4.6818125 8.7176094 4.5078125 8.7089844 z" fill="#000000"/></svg>
