<?xml version="1.0" encoding="UTF-8"?>
<svg width="250px" height="77px" viewBox="0 0 250 77" version="1.1" xmlns="http://www.w3.org/2000/svg" xmlns:xlink="http://www.w3.org/1999/xlink">
    <!-- Generator: Sketch 51.3 (57544) - http://www.bohemiancoding.com/sketch -->
    <title>Amazon_logo_plain</title>
    <desc>Created with Sketch.</desc>
    <defs></defs>
    <g id="Page-1" stroke="none" stroke-width="1" fill="none" fill-rule="evenodd">
        <g id="Amazon_logo_plain" fill-rule="nonzero">
            <path d="M156.067564,58.986392 C141.487412,70.2049631 120.354372,76.1904762 102.159218,76.1904762 C76.6466775,76.1904762 53.678844,66.3400309 36.3027901,49.9568205 C34.9376094,48.6685025 36.1608065,46.9127577 37.7990317,47.9160386 C56.5511807,59.3056231 79.7374573,66.157615 103.688228,66.157615 C119.841064,66.157615 137.610288,62.6689083 153.948799,55.4292886 C156.417051,54.3347889 158.481206,57.1166324 156.067564,58.986392" id="path8" fill="#FF9900"></path>
            <path d="M164.364083,51.6077374 C162.41587,49.3017639 151.437158,50.5182194 146.509343,51.0576908 C145.008072,51.2269368 144.778879,50.0210605 146.131156,49.153668 C154.875167,43.4733573 169.223138,45.1129259 170.896303,47.0169406 C172.56946,48.9315384 170.460822,62.2067619 162.24397,68.5428944 C160.983367,69.516058 159.780063,68.9977489 160.341611,67.7072434 C162.186672,63.4549427 166.323749,53.92429 164.364083,51.6077374" id="path10" fill="#FF9900"></path>
            <path d="M146.704667,9.72446414 L146.704667,3.86312812 C146.704667,2.97606781 147.366278,2.38095238 148.16021,2.38095238 L173.929964,2.38095238 C174.756985,2.38095238 175.418596,2.98729778 175.418596,3.86312812 L175.418596,8.88231942 C175.407576,9.72446414 174.712876,10.8248681 173.477863,12.5653031 L160.124345,31.9795816 C165.086434,31.8560734 170.32419,32.6083827 174.823146,35.1909667 C175.837616,35.7748522 176.113287,36.6282268 176.190476,37.4703801 L176.190476,43.7247179 C176.190476,44.5780926 175.264218,45.5774311 174.293856,45.0609212 C166.365544,40.8277291 155.8349,40.3673561 147.068551,45.1058368 C146.175377,45.5998954 145.238095,44.6117782 145.238095,43.7584035 L145.238095,37.8184663 C145.238095,36.8640347 145.249115,35.235878 146.186397,33.7873879 L161.657078,11.1954142 L148.193291,11.1954142 C147.366278,11.1954142 146.704667,10.6003031 146.704667,9.72446414" id="path12" fill="#221F1F"></path>
            <path d="M52.023227,42.8571429 L44.2462756,42.8571429 C43.5024946,42.803281 42.9118355,42.25383 42.8571429,41.5535437 L42.8571429,2.24090323 C42.8571429,1.4544346 43.524365,0.829563875 44.3556568,0.829563875 L51.6075811,0.829563875 C52.362314,0.861863732 52.9639,1.43288082 53.0185968,2.1439338 L53.0185968,7.28291907 L53.1607919,7.28291907 C55.053073,2.31631066 58.6079334,0 63.3988047,0 C68.2662349,0 71.3070118,2.31631066 73.4946225,7.28291907 C75.3759683,2.31631066 79.6527436,0 84.2357919,0 C87.4953312,0 91.0611352,1.32514477 93.2378065,4.29864245 C95.6988679,7.606119 95.1957154,12.4111172 95.1957154,16.6235774 L95.1847844,41.435041 C95.1847844,42.2215096 94.5175622,42.8571429 93.6862705,42.8571429 L85.9202501,42.8571429 C85.1436551,42.803281 84.5201863,42.1891892 84.5201863,41.435041 L84.5201863,20.5990117 C84.5201863,18.939888 84.6733124,14.8028476 84.301424,13.2299062 C83.7217084,10.5903956 81.9825576,9.84701402 79.729315,9.84701402 C77.8479691,9.84701402 75.8791208,11.0859724 75.080643,13.0683083 C74.2821651,15.0506401 74.3587323,18.3688833 74.3587323,20.5990117 L74.3587323,41.435041 C74.3587323,42.2215096 73.6915102,42.8571429 72.8602184,42.8571429 L65.0942064,42.8571429 C64.3066679,42.803281 63.6941343,42.1891892 63.6941343,41.435041 L63.6831949,20.5990117 C63.6831949,16.2141828 64.4160365,9.76082764 58.8923278,9.76082764 C53.3029786,9.76082764 53.5217409,16.0525726 53.5217409,20.5990117 L53.5217409,41.435041 C53.5217409,42.2215096 52.8545188,42.8571429 52.023227,42.8571429" id="path14" fill="#221F1F"></path>
            <path d="M196.284657,0 C207.964312,0 214.285714,10.1099446 214.285714,22.9649762 C214.285714,35.384806 207.300058,45.2380952 196.284657,45.2380952 C184.815343,45.2380952 178.571429,35.1281507 178.571429,22.5297786 C178.571429,9.85328924 184.892839,3.78042299e-16 196.284657,3.78042299e-16 M196.351077,8.31337002 C190.550004,8.31337002 190.184663,16.2808029 190.184663,21.2465105 C190.184663,26.2233697 190.107167,36.8466207 196.284657,36.8466207 C202.384647,36.8466207 202.672488,28.2766081 202.672488,23.054241 C202.672488,19.6173137 202.528568,15.5108455 201.498981,12.2524477 C200.613319,9.41810014 198.853075,8.31337002 196.351077,8.31337002" id="path16" fill="#221F1F"></path>
            <path d="M227.916888,42.8571429 L220.414567,42.8571429 C219.662209,42.803281 219.058209,42.1891892 219.058209,41.435041 L219.047619,2.1116134 C219.111198,1.38978557 219.736394,0.829563875 220.499341,0.829563875 L227.482439,0.829563875 C228.139417,0.861863732 228.679839,1.31437404 228.828195,1.92846582 L228.828195,7.94009787 L228.965942,7.94009787 C231.074653,2.56410316 234.031069,0 239.233952,0 C242.614234,0 245.909751,1.23895839 248.029052,4.63262132 C250,7.77849586 250,13.0683083 250,16.8713616 L250,41.6181927 C249.91523,42.3076919 249.290034,42.8571429 248.548286,42.8571429 L240.992977,42.8571429 C240.304198,42.803281 239.731987,42.2861504 239.657818,41.6181927 L239.657818,20.2650328 C239.657818,15.9663903 240.145255,9.67463716 234.942369,9.67463716 C233.10918,9.67463716 231.424332,10.9243745 230.587208,12.8205117 C229.527564,15.2230169 229.389809,17.6147433 229.389809,20.2650328 L229.389809,41.435041 C229.379219,42.2215096 228.72223,42.8571429 227.916896,42.8571429" id="path18" fill="#221F1F"></path>
            <g id="use28" transform="translate(102.380952, 0.000000)" fill="#221F1F">
                <path d="M23.4024385,25.2649646 L23.4024385,23.5580129 C17.6985354,23.5580129 11.6728254,24.7772641 11.6728254,31.4942334 C11.6728254,34.8970556 13.4372571,37.2025581 16.4667598,37.2025581 C18.6861757,37.2025581 20.6725503,35.839213 21.926527,33.6223856 C23.4801105,30.8956911 23.4024385,28.3352615 23.4024385,25.2649646 M31.3590396,44.4737279 C30.8374777,44.9392617 30.0828703,44.9725138 29.4947263,44.6621636 C26.8758226,42.489678 26.4097401,41.4810249 24.96712,39.4082957 C20.6392593,43.819771 17.5764741,45.1387744 11.961346,45.1387744 C5.32529101,45.1387744 0.154061376,41.048739 0.154061376,32.857587 C0.154061376,26.4620492 3.6274455,22.1059927 8.56564233,19.9778447 C12.8491132,18.0935385 18.8304381,17.7610216 23.4024385,17.240069 L23.4024385,16.2203304 C23.4024385,14.3471097 23.546701,12.1302866 22.4480893,10.5120142 C21.482637,9.05998976 19.6405291,8.46144749 18.0203513,8.46144749 C15.0130497,8.46144749 12.3275513,10.0021386 11.6728254,13.1943627 C11.5396571,13.903751 11.0180952,14.6020496 10.3078857,14.6353017 L2.6509037,13.8150717 C2.00727196,13.6709862 1.2970582,13.1500251 1.47461164,12.1635472 C3.23904762,2.89722942 11.6173376,0.10402648 19.1189672,0.10402648 C22.9585486,0.10402648 27.9744258,1.12376502 31.0039285,4.02780129 C34.8435221,7.60796951 34.4773126,12.3852223 34.4773126,17.5836756 L34.4773126,29.8648714 C34.4773126,33.5558856 36.0087158,35.174158 37.4513359,37.169306 C37.9617994,37.8786816 38.0727708,38.7321595 37.429139,39.2641976 C35.8200639,40.6053803 32.9570205,43.0993057 31.3812279,44.495903 L31.3590396,44.4737067" id="path30"></path>
            </g>
            <path d="M23.479901,25.2745484 L23.479901,23.5598892 C17.7191944,23.5598892 11.6334761,24.7846458 11.6334761,31.5319445 C11.6334761,34.9501316 13.4154793,37.2660442 16.4751519,37.2660442 C18.7166703,37.2660442 20.7228266,35.8965431 21.9892913,33.669706 C23.5583465,30.9306996 23.479901,28.3587087 23.479901,25.2745484 M31.5157396,44.5700458 C30.9889836,45.0376817 30.2268613,45.0710839 29.6328602,44.7593324 C26.9878756,42.5770373 26.5171515,41.5638298 25.0601647,39.4817415 C20.6892041,43.9131361 17.5959175,45.2380952 11.92487,45.2380952 C5.22272841,45.2380952 0,41.1295919 0,32.9014541 C0,26.4770382 3.50797456,22.1013126 8.49534946,19.9635553 C12.8214782,18.0707408 18.8623694,17.7367225 23.479901,17.2134176 L23.479901,16.1890746 C23.479901,14.3073956 23.6256001,12.0805628 22.5160477,10.4549834 C21.5409808,8.99640253 19.6805278,8.39515763 18.0442152,8.39515763 C15.0069647,8.39515763 12.2947222,9.94280552 11.6334761,13.1494436 C11.4989816,13.862035 10.9722256,14.5634867 10.2549433,14.596889 L2.52170766,13.7729552 C1.87166617,13.6282192 1.1543796,13.1049058 1.33370124,12.1139736 C3.11570873,2.80581521 11.5774357,0 19.1537718,0 C23.0315905,0 28.0974194,1.02434301 31.157092,3.941492 C35.0349231,7.53782591 34.6650666,12.3366496 34.6650666,17.5585757 L34.6650666,29.8952253 C34.6650666,33.6029058 36.2117206,35.2284852 37.6687073,37.2326419 C38.1842543,37.9452206 38.2963309,38.8025524 37.6462894,39.3369927 C36.02119,40.6842313 33.1296344,43.1894177 31.5381489,44.5923211 L31.5157396,44.5700246" id="path30" fill="#221F1F"></path>
        </g>
    </g>
</svg>