<?xml version="1.0" encoding="utf-8"?>
<!-- Generator: Adobe Illustrator 16.0.5, SVG Export Plug-In . SVG Version: 6.00 Build 0)  -->
<!DOCTYPE svg PUBLIC "-//W3C//DTD SVG 1.1//EN" "http://www.w3.org/Graphics/SVG/1.1/DTD/svg11.dtd">
<svg version="1.1" id="Layer_1" xmlns="http://www.w3.org/2000/svg" xmlns:xlink="http://www.w3.org/1999/xlink" x="0px" y="0px"
	 width="100px" height="36px" viewBox="0 0 100 36" enable-background="new 0 0 100 36" xml:space="preserve">
<title>Artboard</title>
<desc>Created with Sketch.</desc>
<g>
	<polygon fill="#999999" points="85.544,12.003 84.438,13.892 82.049,13.892 83.078,12.003 	"/>
</g>
<g enable-background="new    ">
	<defs>
		<path id="SVGID_1_" enable-background="new    " d="M87.016,15.771c-0.384,0.59-0.768,1.181-1.152,1.772
			c0.058-0.088,0.107-0.187,0.149-0.296c0.043-0.109,0.078-0.229,0.105-0.359c0.028-0.13,0.049-0.271,0.062-0.421
			s0.021-0.312,0.021-0.483c0-0.194-0.009-0.374-0.026-0.539c-0.018-0.166-0.044-0.316-0.079-0.453s-0.079-0.257-0.132-0.364
			c-0.052-0.106-0.113-0.198-0.184-0.274c-0.069-0.076-0.149-0.143-0.241-0.201c-0.091-0.058-0.193-0.106-0.306-0.145
			s-0.235-0.068-0.368-0.087s-0.275-0.029-0.428-0.029l1.106-1.889c0.157,0,0.305,0.01,0.442,0.03c0.137,0.02,0.264,0.05,0.379,0.09
			c0.116,0.04,0.222,0.09,0.315,0.149c0.095,0.059,0.178,0.128,0.249,0.207c0.072,0.079,0.136,0.173,0.189,0.283
			c0.055,0.109,0.1,0.235,0.136,0.375s0.063,0.296,0.081,0.467c0.019,0.17,0.027,0.356,0.028,0.556c0,0.177-0.007,0.343-0.021,0.499
			c-0.014,0.155-0.035,0.3-0.063,0.435c-0.029,0.134-0.065,0.258-0.109,0.371C87.126,15.577,87.075,15.679,87.016,15.771z"/>
	</defs>
	<use xlink:href="#SVGID_1_"  overflow="visible" fill="#999999"/>
	<clipPath id="SVGID_2_">
		<use xlink:href="#SVGID_1_"  overflow="visible"/>
	</clipPath>
	<g clip-path="url(#SVGID_2_)" enable-background="new    ">
		<path fill="#999999" d="M87.016,15.771l-1.152,1.772c0.058-0.088,0.107-0.187,0.149-0.296c0.043-0.109,0.078-0.229,0.105-0.359
			c0.028-0.13,0.049-0.271,0.062-0.421s0.021-0.312,0.021-0.483c0-0.194-0.009-0.374-0.026-0.539
			c-0.018-0.166-0.044-0.316-0.079-0.453s-0.079-0.257-0.132-0.364c-0.052-0.106-0.113-0.198-0.184-0.274
			c-0.069-0.076-0.149-0.143-0.241-0.201c-0.091-0.058-0.193-0.106-0.306-0.145s-0.235-0.068-0.368-0.087s-0.275-0.029-0.428-0.029
			l1.106-1.889c0.157,0,0.305,0.01,0.442,0.03c0.137,0.02,0.264,0.05,0.379,0.09c0.116,0.04,0.222,0.09,0.315,0.149
			c0.095,0.059,0.178,0.128,0.249,0.207c0.072,0.079,0.136,0.173,0.189,0.283c0.055,0.109,0.1,0.235,0.136,0.375
			s0.063,0.296,0.081,0.467c0.019,0.17,0.027,0.356,0.028,0.556c0,0.177-0.007,0.343-0.021,0.499
			c-0.014,0.155-0.035,0.3-0.063,0.435c-0.029,0.134-0.065,0.258-0.109,0.371C87.126,15.577,87.075,15.679,87.016,15.771"/>
	</g>
</g>
<g enable-background="new    ">
	<defs>
		<path id="SVGID_3_" enable-background="new    " d="M91.667,18.391c-0.432,0.564-0.864,1.127-1.296,1.691
			c-0.108,0.142-0.225,0.277-0.347,0.408c-0.122,0.13-0.252,0.255-0.389,0.374c-0.136,0.118-0.279,0.231-0.43,0.339
			c-0.15,0.108-0.308,0.21-0.472,0.307l1.244-1.646c0.169-0.1,0.332-0.204,0.486-0.315c0.155-0.11,0.304-0.228,0.444-0.351
			c0.141-0.122,0.274-0.251,0.4-0.386C91.436,18.678,91.555,18.537,91.667,18.391z"/>
	</defs>
	<use xlink:href="#SVGID_3_"  overflow="visible" fill="#CCCCCC"/>
	<clipPath id="SVGID_4_">
		<use xlink:href="#SVGID_3_"  overflow="visible"/>
	</clipPath>
	<g clip-path="url(#SVGID_4_)" enable-background="new    ">
		<path fill="#CCCCCC" d="M91.667,18.391l-1.296,1.691c-0.108,0.142-0.225,0.277-0.347,0.408c-0.122,0.13-0.252,0.255-0.389,0.374
			c-0.136,0.118-0.279,0.231-0.43,0.339c-0.15,0.108-0.308,0.21-0.472,0.307l1.244-1.646c0.169-0.1,0.332-0.204,0.486-0.315
			c0.155-0.11,0.304-0.228,0.444-0.351c0.141-0.122,0.274-0.251,0.4-0.386C91.436,18.678,91.555,18.537,91.667,18.391"/>
	</g>
</g>
<g>
	<polygon fill="#999999" points="85.155,20.763 84.061,22.381 82.055,22.381 83.085,20.763 	"/>
</g>
<g>
	<polygon fill="#CCCCCC" points="77.662,27.924 76.8,29.32 76.787,9.178 77.649,7.139 	"/>
</g>
<g>
	<polygon fill="#999999" points="83.091,27.924 82.06,29.32 76.8,29.32 77.662,27.924 	"/>
</g>
<g>
	<polygon fill="#999999" points="93.596,27.924 92.239,29.32 86.893,29.32 88.078,27.924 	"/>
</g>
<g>
	<polygon fill="#CCCCCC" points="88.078,27.924 86.893,29.32 84.061,22.381 85.155,20.763 	"/>
</g>
<g>
	<polygon fill="#CCCCCC" points="13.567,7.139 14.688,9.178 18.828,23.331 17.839,21.743 	"/>
</g>
<g>
	<polygon fill="#CCCCCC" points="27.171,7.139 27.872,9.178 30.278,29.32 29.655,27.924 	"/>
</g>
<g>
	<polygon fill="#999999" points="29.655,27.924 30.278,29.32 25.201,29.32 24.415,27.924 	"/>
</g>
<g>
	<polygon fill="#CCCCCC" points="23.081,16.706 23.908,18.45 21.241,29.32 20.328,27.924 	"/>
</g>
<g>
	<polygon fill="#CCCCCC" points="12.524,16.958 13.677,18.693 12.421,29.32 11.227,27.924 	"/>
</g>
<g>
	<polygon fill="#999999" points="11.227,27.924 12.421,29.32 7.344,29.32 5.988,27.924 	"/>
</g>
<g>
	<polygon fill="#999999" points="20.328,27.924 21.241,29.32 16.303,29.32 15.233,27.924 	"/>
</g>
<g>
	<polygon fill="#999999" points="40.748,12.003 41.028,13.892 37.994,13.892 37.617,12.003 	"/>
</g>
<g enable-background="new    ">
	<defs>
		<path id="SVGID_5_" enable-background="new    " d="M42.152,13.709c0.04,0.311,0.08,0.622,0.12,0.933
			c0.039,0.301,0.078,0.602,0.116,0.903c-0.013-0.104-0.029-0.204-0.048-0.299c-0.019-0.095-0.04-0.184-0.064-0.269
			s-0.051-0.165-0.08-0.24c-0.029-0.075-0.061-0.145-0.096-0.21c-0.057-0.106-0.122-0.2-0.194-0.279
			c-0.073-0.08-0.154-0.146-0.244-0.199c-0.089-0.053-0.187-0.092-0.293-0.118c-0.105-0.026-0.219-0.04-0.341-0.04l-0.28-1.889
			c0.126,0,0.244,0.014,0.353,0.041c0.109,0.027,0.21,0.068,0.302,0.123c0.092,0.054,0.176,0.123,0.251,0.205
			s0.142,0.178,0.201,0.289c0.036,0.067,0.068,0.14,0.099,0.217c0.03,0.078,0.058,0.16,0.083,0.247
			c0.025,0.088,0.047,0.18,0.066,0.278S42.139,13.602,42.152,13.709z"/>
	</defs>
	<use xlink:href="#SVGID_5_"  overflow="visible" fill="#999999"/>
	<clipPath id="SVGID_6_">
		<use xlink:href="#SVGID_5_"  overflow="visible"/>
	</clipPath>
	<g clip-path="url(#SVGID_6_)" enable-background="new    ">
		<path fill="#999999" d="M42.152,13.709l0.236,1.836c-0.013-0.104-0.029-0.204-0.048-0.299c-0.019-0.095-0.04-0.184-0.064-0.269
			s-0.051-0.165-0.08-0.24c-0.029-0.075-0.061-0.145-0.096-0.21c-0.057-0.106-0.122-0.2-0.194-0.279
			c-0.073-0.08-0.154-0.146-0.244-0.199c-0.089-0.053-0.187-0.092-0.293-0.118c-0.105-0.026-0.219-0.04-0.341-0.04l-0.28-1.889
			c0.126,0,0.244,0.014,0.353,0.041c0.109,0.027,0.21,0.068,0.302,0.123c0.092,0.054,0.176,0.123,0.251,0.205
			s0.142,0.178,0.201,0.289c0.036,0.067,0.068,0.14,0.099,0.217c0.03,0.078,0.058,0.16,0.083,0.247
			c0.025,0.088,0.047,0.18,0.066,0.278S42.139,13.602,42.152,13.709"/>
	</g>
</g>
<g>
	<polygon fill="#CCCCCC" points="37.617,12.003 37.994,13.892 37.992,19.068 37.615,17.345 	"/>
</g>
<g enable-background="new    ">
	<defs>
		<path id="SVGID_7_" enable-background="new    " d="M47.619,13.865c0.022,0.61,0.045,1.221,0.067,1.832
			c0.002,0.056,0.004,0.112,0.005,0.168c0.001,0.057,0.003,0.113,0.004,0.17c0.001,0.058,0.001,0.115,0.002,0.173
			c0,0.058,0,0.116,0,0.175c0,0.728-0.034,1.396-0.103,2.005c-0.069,0.609-0.173,1.159-0.312,1.649
			c-0.138,0.49-0.312,0.921-0.52,1.292c-0.208,0.372-0.452,0.684-0.731,0.937c-0.277,0.256-0.572,0.479-0.884,0.669
			c-0.312,0.191-0.643,0.35-0.99,0.477s-0.712,0.223-1.093,0.286c-0.381,0.062-0.779,0.095-1.194,0.095
			c-0.205,0-0.41-0.006-0.616-0.017s-0.413-0.027-0.62-0.049s-0.415-0.049-0.623-0.082c-0.208-0.032-0.417-0.07-0.626-0.114
			c-0.212-0.043-0.399-0.082-0.563-0.115s-0.303-0.061-0.419-0.084s-0.208-0.042-0.277-0.057s-0.114-0.025-0.136-0.031l-0.377-1.591
			c0.022,0.007,0.069,0.018,0.14,0.032c0.071,0.016,0.167,0.034,0.286,0.059s0.264,0.053,0.433,0.088
			c0.169,0.034,0.362,0.073,0.581,0.118c0.216,0.045,0.431,0.084,0.646,0.118c0.215,0.033,0.429,0.062,0.643,0.084
			s0.427,0.039,0.64,0.051c0.213,0.011,0.425,0.017,0.636,0.017c0.428,0,0.838-0.032,1.231-0.098
			c0.394-0.065,0.77-0.163,1.128-0.295c0.358-0.131,0.699-0.295,1.021-0.491c0.323-0.197,0.627-0.428,0.913-0.69
			c0.288-0.261,0.54-0.583,0.755-0.967c0.215-0.383,0.394-0.827,0.537-1.333c0.143-0.506,0.25-1.073,0.321-1.702
			s0.106-1.318,0.106-2.069c0-0.061,0-0.121,0-0.181c0-0.06-0.001-0.12-0.002-0.179s-0.002-0.118-0.004-0.176
			C47.623,13.98,47.622,13.923,47.619,13.865z"/>
	</defs>
	<use xlink:href="#SVGID_7_"  overflow="visible" fill="#CCCCCC"/>
	<clipPath id="SVGID_8_">
		<use xlink:href="#SVGID_7_"  overflow="visible"/>
	</clipPath>
	<g clip-path="url(#SVGID_8_)" enable-background="new    ">
		<path fill="#CCCCCC" d="M47.619,13.865l0.067,1.832c0.001,0.021,0.001,0.042,0.002,0.062c0.001,0.021,0.001,0.042,0.002,0.062
			c0,0.021,0.001,0.042,0.001,0.063c0,0.021,0.001,0.042,0.001,0.063l-0.067-1.823c0-0.022-0.001-0.044-0.001-0.066
			c0-0.021-0.001-0.043-0.002-0.065c0-0.021-0.001-0.043-0.002-0.065S47.62,13.887,47.619,13.865"/>
		<path fill="#CCCCCC" d="M47.627,14.125l0.067,1.823c0.001,0.036,0.001,0.072,0.002,0.107c0,0.036,0.001,0.072,0.001,0.108
			s0,0.073,0,0.109c0,0.037,0,0.073,0,0.11c0,0.22-0.003,0.436-0.009,0.645s-0.016,0.414-0.028,0.612
			c-0.013,0.199-0.029,0.392-0.048,0.58c-0.019,0.188-0.041,0.37-0.066,0.547l-0.071-1.733c0.026-0.183,0.049-0.371,0.068-0.564
			c0.02-0.193,0.036-0.393,0.049-0.598c0.013-0.205,0.023-0.416,0.029-0.631c0.007-0.216,0.01-0.438,0.01-0.666
			c0-0.038,0-0.076,0-0.113c0-0.038-0.001-0.076-0.001-0.113c0-0.037-0.001-0.074-0.002-0.111
			C47.628,14.199,47.628,14.162,47.627,14.125"/>
		<path fill="#CCCCCC" d="M47.476,17.034l0.071,1.733c-0.02,0.139-0.042,0.274-0.065,0.407s-0.05,0.262-0.078,0.388
			c-0.028,0.125-0.058,0.247-0.089,0.366s-0.065,0.234-0.102,0.347l-0.082-1.685c0.037-0.116,0.071-0.235,0.104-0.358
			c0.033-0.123,0.063-0.249,0.092-0.379c0.029-0.129,0.055-0.263,0.08-0.399C47.432,17.318,47.455,17.178,47.476,17.034"/>
		<path fill="#CCCCCC" d="M47.131,18.591l0.082,1.685c-0.03,0.094-0.061,0.186-0.094,0.274c-0.032,0.089-0.066,0.175-0.102,0.26
			c-0.036,0.084-0.072,0.166-0.11,0.245c-0.038,0.08-0.078,0.157-0.119,0.231l-0.096-1.652c0.042-0.077,0.083-0.157,0.122-0.239
			c0.04-0.082,0.078-0.167,0.114-0.254c0.037-0.087,0.072-0.176,0.105-0.268S47.1,18.688,47.131,18.591"/>
		<path fill="#CCCCCC" d="M46.693,19.634l0.096,1.652c-0.053,0.098-0.109,0.191-0.167,0.281s-0.119,0.176-0.182,0.257
			c-0.063,0.082-0.128,0.16-0.196,0.233c-0.067,0.074-0.138,0.144-0.21,0.209c-0.277,0.256-0.572,0.479-0.884,0.669
			c-0.312,0.191-0.643,0.35-0.99,0.477s-0.712,0.223-1.093,0.286c-0.381,0.062-0.779,0.095-1.194,0.095
			c-0.205,0-0.41-0.006-0.616-0.017s-0.413-0.027-0.62-0.049s-0.415-0.049-0.623-0.082c-0.208-0.032-0.417-0.07-0.626-0.114
			c-0.212-0.043-0.399-0.082-0.563-0.115s-0.303-0.061-0.419-0.084s-0.208-0.042-0.277-0.057s-0.114-0.025-0.136-0.031l-0.377-1.591
			c0.022,0.007,0.069,0.018,0.14,0.032c0.071,0.016,0.167,0.034,0.286,0.059s0.264,0.053,0.433,0.088
			c0.169,0.034,0.362,0.073,0.581,0.118c0.216,0.045,0.431,0.084,0.646,0.118c0.215,0.033,0.429,0.062,0.643,0.084
			s0.427,0.039,0.64,0.051c0.213,0.011,0.425,0.017,0.636,0.017c0.428,0,0.838-0.032,1.231-0.098
			c0.394-0.065,0.77-0.163,1.128-0.295c0.358-0.131,0.699-0.295,1.021-0.491c0.323-0.197,0.627-0.428,0.913-0.69
			c0.075-0.068,0.147-0.14,0.217-0.216s0.137-0.156,0.202-0.24c0.065-0.085,0.128-0.173,0.188-0.266S46.638,19.734,46.693,19.634"/>
	</g>
</g>
<g>
	<polygon fill="#999999" points="37.612,27.924 37.99,29.32 32.721,29.32 32.175,27.924 	"/>
</g>
<g>
	<polygon fill="#CCCCCC" points="37.614,21.653 37.991,23.244 37.99,29.32 37.612,27.924 	"/>
</g>
<g>
	<polygon fill="#CCCCCC" points="67.766,19.782 67.209,21.431 69.707,9.178 70.343,7.139 	"/>
</g>
<g>
	<polygon fill="#999999" points="71.217,27.924 70.554,29.32 65.285,29.32 65.78,27.924 	"/>
</g>
<g>
	<polygon fill="#CCCCCC" points="62.247,15.222 61.861,17.011 58.42,29.32 58.695,27.924 	"/>
</g>
<g>
	<polygon fill="#999999" points="58.695,27.924 58.42,29.32 53.159,29.32 53.267,27.924 	"/>
</g>
<g>
	<polygon fill="#CCCCCC" points="53.267,27.924 53.159,29.32 48.545,9.178 48.505,7.139 	"/>
</g>
<g>
	<polygon fill="#CCCCCC" points="65.78,27.924 65.285,29.32 61.861,17.011 62.247,15.222 	"/>
</g>
<g>
	<g>
		<path d="M89.979,19.863l3.617,8.061h-5.518l-2.923-7.161h-2.07l0.006,7.161h-5.429L77.649,7.139h8.872
			c0.494,0,0.962,0.032,1.401,0.098c0.44,0.065,0.853,0.164,1.237,0.295c0.385,0.132,0.742,0.296,1.071,0.494
			c0.33,0.198,0.633,0.43,0.907,0.695c0.277,0.263,0.519,0.573,0.727,0.93c0.207,0.356,0.38,0.76,0.518,1.21
			c0.139,0.451,0.242,0.949,0.312,1.494s0.104,1.138,0.104,1.779c0.001,0.4-0.015,0.777-0.046,1.13
			c-0.031,0.354-0.077,0.683-0.14,0.989c-0.062,0.307-0.14,0.589-0.232,0.849c-0.094,0.26-0.202,0.497-0.325,0.71
			c-0.124,0.211-0.26,0.413-0.408,0.604s-0.309,0.372-0.481,0.543c-0.174,0.171-0.359,0.332-0.557,0.482
			C90.411,19.593,90.201,19.733,89.979,19.863z M86.915,15.905c0.076-0.09,0.143-0.193,0.199-0.312
			c0.057-0.118,0.104-0.25,0.14-0.395c0.037-0.146,0.065-0.305,0.083-0.478c0.019-0.173,0.027-0.359,0.027-0.56
			c-0.001-0.2-0.01-0.386-0.028-0.556c-0.018-0.17-0.045-0.326-0.081-0.467s-0.081-0.266-0.136-0.375
			c-0.054-0.11-0.117-0.205-0.189-0.283c-0.071-0.079-0.154-0.148-0.249-0.207c-0.094-0.06-0.199-0.109-0.315-0.149
			c-0.115-0.04-0.242-0.07-0.379-0.09c-0.138-0.02-0.285-0.03-0.442-0.03h-2.466l0.004,4.452h2.466c0.153,0,0.296-0.011,0.43-0.034
			c0.134-0.022,0.258-0.057,0.372-0.102s0.219-0.103,0.312-0.171C86.757,16.078,86.841,15.998,86.915,15.905"/>
	</g>
	<g>
		<polygon points="22.133,7.139 27.171,7.139 29.655,27.924 24.415,27.924 23.081,16.706 20.328,27.924 15.233,27.924 
			12.524,16.958 11.227,27.924 5.988,27.924 8.474,7.139 13.567,7.139 17.839,21.743 		"/>
	</g>
	<g>
		<path d="M44.42,7.669c0.228,0.087,0.446,0.199,0.655,0.333c0.209,0.135,0.41,0.292,0.601,0.473
			c0.191,0.181,0.374,0.385,0.546,0.612c0.173,0.227,0.337,0.477,0.493,0.749c0.153,0.272,0.287,0.575,0.402,0.909
			c0.114,0.333,0.21,0.698,0.287,1.093c0.076,0.395,0.134,0.821,0.172,1.277c0.038,0.456,0.057,0.943,0.057,1.459
			c0,0.751-0.035,1.441-0.106,2.069s-0.178,1.196-0.321,1.702c-0.143,0.506-0.321,0.951-0.537,1.333
			c-0.215,0.384-0.467,0.706-0.755,0.967c-0.286,0.263-0.59,0.493-0.913,0.69c-0.322,0.196-0.663,0.36-1.021,0.491
			c-0.358,0.132-0.734,0.229-1.128,0.295c-0.393,0.065-0.804,0.098-1.231,0.098c-0.211,0-0.423-0.006-0.636-0.017
			c-0.212-0.012-0.426-0.028-0.64-0.051s-0.428-0.051-0.643-0.084c-0.215-0.034-0.43-0.073-0.646-0.118
			c-0.218-0.045-0.412-0.084-0.581-0.118c-0.169-0.035-0.313-0.063-0.433-0.088s-0.215-0.043-0.286-0.059
			c-0.071-0.015-0.118-0.025-0.14-0.032l-0.002,6.271h-5.437l0.008-20.785h9.124c0.29,0,0.572,0.011,0.847,0.032
			c0.274,0.021,0.541,0.054,0.8,0.098c0.259,0.043,0.511,0.099,0.755,0.166C43.954,7.501,44.191,7.579,44.42,7.669z M41.881,16.688
			c0.054-0.108,0.102-0.232,0.142-0.372s0.074-0.296,0.102-0.468c0.027-0.171,0.047-0.358,0.061-0.56
			c0.014-0.202,0.021-0.419,0.021-0.65c0-0.221-0.007-0.427-0.022-0.619s-0.036-0.371-0.065-0.535
			c-0.029-0.165-0.066-0.316-0.11-0.453s-0.095-0.261-0.153-0.371c-0.059-0.11-0.125-0.207-0.201-0.289s-0.159-0.15-0.251-0.205
			c-0.092-0.055-0.193-0.096-0.302-0.123c-0.109-0.027-0.227-0.041-0.353-0.041h-3.131l-0.001,5.342h3.132
			c0.135,0,0.26-0.014,0.375-0.041c0.115-0.027,0.22-0.067,0.314-0.122c0.095-0.055,0.179-0.123,0.253-0.205
			S41.827,16.798,41.881,16.688"/>
	</g>
	<g>
		<polygon points="67.766,19.782 70.343,7.139 75.967,7.139 71.217,27.924 65.78,27.924 62.247,15.222 58.695,27.924 53.267,27.924 
			48.505,7.139 54.129,7.139 56.704,19.782 59.815,7.139 64.683,7.139 		"/>
	</g>
</g>
</svg>
