<?xml version="1.0" encoding="UTF-8"?>
<svg width="85px" height="21px" viewBox="0 0 85 21" version="1.1" xmlns="http://www.w3.org/2000/svg" xmlns:xlink="http://www.w3.org/1999/xlink">
    <!-- Generator: Sketch 51.3 (57544) - http://www.bohemiancoding.com/sketch -->
    <title>MPWR</title>
    <desc>Created with Sketch.</desc>
    <defs></defs>
    <g id="Page-1" stroke="none" stroke-width="1" fill="none" fill-rule="evenodd">
        <path d="M18.898,21 L17.554,9.772 L14.81,21 L9.714,21 L6.998,10.024 L5.71,21 L0.474,21 L2.938,0.196 L8.034,0.196 L12.318,14.812 L16.602,0.196 L21.642,0.196 L24.134,21 L18.898,21 Z M25.654,0.196 L34.782,0.196 C35.9393391,0.196 36.9753288,0.37333156 37.89,0.728 C38.8046712,1.08266844 39.5699969,1.80599454 40.186,2.898 C40.8020031,3.99000546 41.11,5.57198964 41.11,7.644 C41.11,10.6493484 40.5360057,12.6746614 39.388,13.72 C38.2399943,14.7653386 36.8073419,15.288 35.09,15.288 C34.2499958,15.288 33.3960043,15.1993342 32.528,15.022 C31.6599957,14.8446658 31.1793338,14.7466668 31.086,14.728 L31.086,21 L25.654,21 L25.654,0.196 Z M34.222,10.416 C34.763336,10.416 35.1413323,10.1966689 35.356,9.758 C35.5706677,9.31933114 35.678,8.633338 35.678,7.7 C35.678,6.82266228 35.5613345,6.16466886 35.328,5.726 C35.0946655,5.28733114 34.7260025,5.068 34.222,5.068 L31.086,5.068 L31.086,10.416 L34.222,10.416 Z M40.978,0.196 L46.606,0.196 L49.182,12.852 L52.29,0.196 L57.162,0.196 L60.242,12.852 L62.818,0.196 L68.446,0.196 L63.686,21 L58.254,21 L54.726,8.288 L51.17,21 L45.738,21 L40.978,0.196 Z M69.126,0.196 L78.002,0.196 C79.9806766,0.196 81.5206612,0.72332806 82.622,1.778 C83.7233388,2.83267194 84.274,4.63865388 84.274,7.196 C84.274,8.80134136 84.0266691,10.0286624 83.532,10.878 C83.0373309,11.7273376 82.3420045,12.4133307 81.446,12.936 L85.058,21 L79.542,21 L76.63,13.832 L74.558,13.832 L74.558,21 L69.126,21 L69.126,0.196 Z M77.022,9.52 C77.6380031,9.52 78.0953318,9.33800182 78.394,8.974 C78.6926682,8.60999818 78.842,8.02667068 78.842,7.224 C78.842,6.42132932 78.6973348,5.86133492 78.408,5.544 C78.1186652,5.22666508 77.6566698,5.068 77.022,5.068 L74.558,5.068 L74.558,9.52 L77.022,9.52 Z" id="MPWR" fill="#000000"></path>
    </g>
</svg>